<?xml version="1.0" encoding="UTF-8"?>
<svg width="140px" height="140px" viewBox="0 0 140 140" version="1.1" xmlns="http://www.w3.org/2000/svg" xmlns:xlink="http://www.w3.org/1999/xlink">
    <title>building-stub</title>
    <g id="building-stub" stroke="none" stroke-width="1" fill="none" fill-rule="evenodd">
        <g id="Group" transform="translate(65.585624, 72.926510) rotate(-17.000000) translate(-65.585624, -72.926510) translate(-3.914376, 3.426510)">
            <path d="M69.4939767,18.4196273 C60.3770329,14.0172035 24.1120766,45.5624558 24.0010101,51.9254476 C23.9269658,56.1674421 40.0245947,79.3150292 72.2938968,121.368209 C105.620526,98.3005201 119.453122,82.3939047 113.791683,73.6483627 C105.299526,60.5300496 78.6109205,22.8220511 69.4939767,18.4196273 Z" id="Path-100-Copy" fill-opacity="0.0976289336" fill="#92A5AD" transform="translate(69.512413, 69.684104) rotate(-136.000000) translate(-69.512413, -69.684104) "></path>
            <g id="Group-Copy" transform="translate(74.414376, 68.073490) rotate(7.000000) translate(-74.414376, -68.073490) translate(41.914376, 23.573490)">
                <path d="M0,15 C0,18 0,42.6666667 0,89 L65,89 L65,0 C47.3333333,0 33.8333333,0 24.5,0 C10.5,0 0,10.5 0,15 Z" id="Path-27-Copy" fill="#DEDBD6"></path>
                <path d="M27.5,-1.43024481e-13 C17.1666667,-1.43024481e-13 11.3333333,4.5 10,13.5 C5,10.5 1.66666667,11 1.33226763e-13,15 L1.33226763e-13,15 L0.00334018865,14.8589298 C0.21686683,10.2846211 10.6443299,-1.41248124e-13 24.5,-1.41248124e-13 L24.5,-1.41248124e-13 Z" id="Combined-Shape" fill="#B0B0B0"></path>
            </g>
        </g>
        <g id="Group-2-Copy" transform="translate(90.000000, 45.000000) rotate(-7.000000) translate(-90.000000, -45.000000) translate(66.000000, 10.000000)">
            <path d="M21.9686003,-4.0760304 C22.7141508,-4.6423447 23.457282,-4.92876467 24.1979938,-4.93529031 C24.9387057,-4.94166727 25.6769982,-4.6681499 26.4128714,-4.1147382 L25.8064335,66.0539983 L23.4634837,75.0124241 L21.3621623,66.0927061 L21.9686003,-4.0760304 Z" id="Rectangle" fill="#FBEC5D" transform="translate(23.887517, 35.038567) rotate(147.000000) translate(-23.887517, -35.038567) "></path>
            <path d="M25.9936673,70.6328716 C26.0629811,62.1067647 26.4428452,6.26836474 26.3029525,4.71315058 C26.2036128,3.60877237 23.1809433,5.0470788 23.6715578,7.18273255 C25.0191584,13.0488629 25.6904753,68.8586797 24.7109448,70.4079727 C24.5025968,70.753266 24.6695617,70.1206723 25.9936673,70.6328716 Z" id="Path" fill="#F2E45E" transform="translate(24.975688, 37.482351) rotate(147.000000) translate(-24.975688, -37.482351) "></path>
            <path d="M41.2221366,62.7869062 C41.9677291,62.2157243 42.7108814,61.9269078 43.4515932,61.9204565 C44.1923051,61.9140052 44.9305766,62.1899191 45.6664077,62.7481984 L45.610038,69.2705394 L41.1657668,69.3092472 L41.2221366,62.7869062 Z" id="Rectangle" fill="#505050" transform="translate(43.416087, 65.614797) rotate(147.000000) translate(-43.416087, -65.614797) "></path>
            <path d="M2.64199931,0.87043189 C3.31122292,0.703808723 4.03810935,0.617080586 4.82265859,0.610247481 C5.60720783,0.603414376 6.36174514,0.677239913 7.0862705,0.831724094 L4.74352754,9.76621442 L2.64199931,0.87043189 Z" id="Path-114" fill="#ECDFD2" transform="translate(4.864135, 5.188014) rotate(147.000000) translate(-4.864135, -5.188014) "></path>
            <path d="M2.56836261,1.08304143 C2.90299136,0.99776879 3.26644305,0.953424194 3.65871767,0.950007641 C4.05099229,0.946591089 4.42825247,0.984484386 4.7904982,1.06368753 L3.61818713,5.63964924 L2.56836261,1.08304143 Z" id="Path-114" fill="#505050" transform="translate(3.679430, 3.294722) rotate(147.000000) translate(-3.679430, -3.294722) "></path>
        </g>
    </g>
</svg>