<?xml version="1.0" encoding="UTF-8"?>
<svg width="140px" height="140px" viewBox="0 0 140 140" version="1.1" xmlns="http://www.w3.org/2000/svg" xmlns:xlink="http://www.w3.org/1999/xlink">
    <title>getting-started</title>
    <g id="getting-started" stroke="none" stroke-width="1" fill="none" fill-rule="evenodd">
        <path d="M65.1869357,79 C38.9953855,79 5,89.5844724 5,98.0245971 C5,106.464722 60.4463639,122.107252 97.7231819,113.485802 C135,104.864351 131.573933,95.0737307 119.607711,89.9906347 C107.641489,84.9075387 91.3784859,79 65.1869357,79 Z" id="Path-100-Copy" fill-opacity="0.0976289336" fill="#92A5AD"></path>
        <path d="M23,84 L23,33 C23,31.3431458 24.3431458,30 26,30 L114,30 C115.656854,30 117,31.3431458 117,33 L117,84 L117,84 L23,84 Z" id="Path-26" fill="#DCDCDC"></path>
        <path d="M28,34 L113,34 C113.552285,34 114,34.4477153 114,35 L114,79 C114,79.5522847 113.552285,80 113,80 L28,80 C27.4477153,80 27,79.5522847 27,79 L27,35 C27,34.4477153 27.4477153,34 28,34 Z" id="Rectangle" fill="#FBEC5D"></path>
        <path d="M102.244816,39.7047313 C111.433529,42.4133334 111.064894,71.205702 102.254551,75.5015228 C93.4442079,79.7973436 110.393319,55.0902709 56.1290443,48.8131411 C1.8647694,42.5360113 93.0561034,36.9961291 102.244816,39.7047313 Z" id="Path-113" fill="#FFFFFF" opacity="0.300000012"></path>
        <polygon id="Path-24" fill="#C8C8C8" points="13 98 23.2980769 84 117.125 84 132 98"></polygon>
        <path d="M13,98 L13,102 C13,102.552285 13.4477153,103 14,103 L131,103 C131.552285,103 132,102.552285 132,102 L132,98 L132,98 L13,98 Z" id="Path-25" fill="#959595"></path>
        <g id="Group" transform="translate(60.000000, 39.000000)">
            <path d="M18.4865692,23.5569981 C20.9550205,17.1652484 22.202494,13.0142078 22.2289897,11.1038763 C22.3067467,5.49761727 17.5742915,1.0150438 11.6587552,1.09176827 C5.74321889,1.16849273 0.884694732,5.77546115 0.806937749,11.3817202 C0.778858142,13.4062529 1.91161265,17.5264219 4.20520127,23.7422274 L18.4865692,23.5569981 Z" id="Oval" fill="#00A86B" transform="translate(11.518181, 12.416513) rotate(2.000000) translate(-11.518181, -12.416513) "></path>
            <path d="M7.91950165,24.2500168 C5.4817128,14.132431 5.25458004,9.06077489 7.23810337,9.0350486 C10.2133884,8.99645918 11.3565719,12.3647001 9.57140087,12.3878537 C7.78622987,12.4110074 8.42821736,9.01961283 11.4035024,8.98102341 C14.3787873,8.94243398 14.9269139,12.3183928 13.1417429,12.3415464 C11.3565719,12.3647001 13.1886733,8.95786975 15.5689013,8.92693588 C17.15572,8.9063964 16.9861481,13.9832185 15.0601856,24.1574022 L7.91950165,24.2500168 Z" id="Path-23" stroke="#FBEC5D" stroke-width="0.5" transform="translate(11.273711, 16.588476) rotate(2.000000) translate(-11.273711, -16.588476) "></path>
            <path d="M3.60716032,23.7257736 L4.77380907,25.4021762 L5.72904629,34.6289837 C5.78232537,35.1436158 6.21935957,35.5326314 6.73669882,35.5259215 L14.4779097,35.425518 C14.9750461,35.4190702 15.3919449,35.0483779 15.4564805,34.5554059 L16.674949,25.2478185 L16.674949,25.2478185 L17.8885283,23.5405444 L3.60716032,23.7257736 Z" id="Path-22" fill="#4C555E" transform="translate(10.747844, 29.539157) rotate(2.000000) translate(-10.747844, -29.539157) "></path>
            <path d="M9.08518487,35.4079683 C8.87845544,35.9034751 8.49269424,36.2367318 8.05093319,36.2367318 C7.60917214,36.2367318 7.22341094,35.9034751 7.01668152,35.4079683 Z" id="Combined-Shape" fill="#112545" transform="translate(8.050933, 35.907968) rotate(2.000000) translate(-8.050933, -35.907968) "></path>
            <path d="M13.8448957,35.5124004 C13.6381663,36.0079071 13.2524051,36.3411639 12.810644,36.3411639 C12.368883,36.3411639 11.9831218,36.0079071 11.7763924,35.5124004 Z" id="Combined-Shape" fill="#112545" transform="translate(12.810644, 36.012400) rotate(2.000000) translate(-12.810644, -36.012400) "></path>
        </g>
    </g>
</svg>