<?xml version="1.0" encoding="UTF-8"?>
<svg width="140px" height="140px" viewBox="0 0 140 140" version="1.1" xmlns="http://www.w3.org/2000/svg" xmlns:xlink="http://www.w3.org/1999/xlink">
    <title>invoices</title>
    <g id="invoices" stroke="none" stroke-width="1" fill="none" fill-rule="evenodd">
        <path d="M60.7133092,32 C42.1257575,32 18,59.3161126 18,81.0981523 C18,102.880192 54.5438008,121 83.8035485,121 C113.063296,121 107.826662,73.4826382 99.3345048,60.3643251 C90.8423472,47.246012 79.300861,32 60.7133092,32 Z" id="Path-100-Copy" fill-opacity="0.0976289336" fill="#92A5AD"></path>
        <g id="Group" transform="translate(68.935338, 69.057208) rotate(7.000000) translate(-68.935338, -69.057208) translate(39.435338, 28.557208)">
            <path d="M0.557207748,13.9184845 C0.557207748,16.6151137 0.557207748,38.7873983 0.557207748,80.4353384 L58.5572077,80.4353384 L58.5572077,0.435338404 C42.7931052,0.435338404 30.7469513,0.435338404 22.4187462,0.435338404 C9.92643852,0.435338404 0.557207748,9.87354065 0.557207748,13.9184845 Z" id="Path-27-Copy" fill="#DEDBD6"></path>
            <path d="M24.4011661,0.468552156 C15.3623983,0.468552156 10.259868,4.40466396 9.09357541,12.2768876 C4.71997806,9.65281304 1.80424649,10.0901588 0.346380706,13.5889248 L0.346380706,13.5889248 L0.349850579,13.4542797 C0.553161694,9.44758463 9.66853147,0.468552156 21.7770077,0.468552156 L21.7770077,0.468552156 Z" id="Combined-Shape" fill="#B0B0B0"></path>
            <path d="M21.413897,18.0252205 C21.7742185,16.1007853 23.2221562,11.6043554 23.2190412,14.3627139 C23.2159262,17.1210725 24.0760635,21.9210706 24.9354635,20.3808114 C25.7948635,18.8405521 24.5588175,16.8498553 26.4241614,16.5153575 C28.2895052,16.1808598 27.4128367,19.1783629 28.7790073,19.1768093 C30.1451779,19.1752557 31.0839349,18.4076746 33.5525133,17.6100386 C35.1982323,17.0782814 36.2092526,17.2954302 36.5855742,18.261485" id="Path-10" stroke="#6F00FF" transform="translate(28.999736, 17.084667) rotate(-9.000000) translate(-28.999736, -17.084667) "></path>
            <rect id="Rectangle" fill="#00A86B" x="33.5009673" y="54.2155258" width="14" height="3"></rect>
            <rect id="Rectangle-Copy" fill="#00A86B" x="10.4824086" y="46.5622386" width="37" height="3"></rect>
            <rect id="Rectangle-Copy-2" fill="#00A86B" x="10.6218693" y="39.4925462" width="37" height="3"></rect>
            <rect id="Rectangle-Copy-3" fill="#00A86B" x="10.7613301" y="32.4228537" width="37" height="3"></rect>
        </g>
    </g>
</svg>