<?xml version="1.0" encoding="UTF-8"?>
<svg width="122px" height="42px" viewBox="0 0 122 42" version="1.1" xmlns="http://www.w3.org/2000/svg" xmlns:xlink="http://www.w3.org/1999/xlink">
    <title>stub-logo</title>
    <defs>
        <path d="M16.022,0.2161 C14.885,0.7751 13.349,2.4061 13.14,10.0791 L13.14,10.0791 C13.13,10.4441 13.124,10.8121 13.119,11.1821 L13.119,11.1821 C11.932,6.5621 10.888,4.1901 9.411,3.7111 L9.411,3.7111 C9.031,3.5881 8.281,3.4851 7.516,4.1751 L7.516,4.1751 C5.409,6.0761 5.596,10.9571 6.497,17.1541 L6.497,17.1541 C5.402,15.1631 4.166,13.5591 2.924,13.2371 L2.924,13.2371 C2.258,13.0641 1.618,13.2291 1.122,13.7011 L1.122,13.7011 C0.388,14.4021 0.005,15.9751 0,18.0621 L0,18.0621 L0,18.1531 C0.004,19.4761 0.157,21.0001 0.466,22.6371 L0.466,22.6371 C1.16,26.3131 2.921,32.0001 7.362,38.2131 L7.362,38.2131 L7.986,39.0851 L9.73,37.8381 L9.106,36.9651 C4.947,31.1481 3.276,25.8421 2.606,22.4141 L2.606,22.4141 C1.866,18.6211 2.172,16.0701 2.523,15.3771 L2.523,15.3771 C2.87,15.5971 3.664,16.3881 4.775,18.4671 L4.775,18.4671 C5.927,20.6251 7.121,23.6101 8.133,26.8691 L8.133,26.8691 L10.213,26.3701 C10.093,25.6661 9.968,24.9571 9.844,24.2461 L9.844,24.2461 C9.113,20.0621 8.357,15.7351 8.101,12.2641 L8.101,12.2641 C7.791,8.0651 8.32,6.4561 8.86,5.8601 L8.86,5.8601 C9.129,6.1571 9.768,7.1431 10.672,10.3311 L10.672,10.3311 C11.433,13.0101 12.14,16.3281 12.824,19.5381 L12.824,19.5381 C13.199,21.2991 13.554,22.9631 13.9,24.4421 L13.9,24.4421 L16.01,24.0771 C15.742,21.7131 15.134,15.6241 15.283,10.1361 L15.283,10.1361 C15.423,4.9981 16.213,2.6751 16.889,2.1891 L16.889,2.1891 C17.114,2.4211 17.75,3.3681 18.459,7.0581 L18.459,7.0581 C19.014,9.9461 19.442,13.5161 19.855,16.9691 L19.855,16.9691 C20.115,19.1441 20.361,21.1981 20.624,22.9441 L20.624,22.9441 L22.756,22.7831 C22.756,18.5111 22.79,14.0211 23.197,10.2091 L23.197,10.2091 C23.769,4.8651 24.838,3.5471 25.353,3.2241 L25.353,3.2241 C25.497,3.4421 25.79,4.0721 26.068,5.7891 L26.068,5.7891 C26.335,7.4271 26.523,9.5921 26.721,11.8831 L26.721,11.8831 C27.061,15.8091 27.446,20.2581 28.363,24.0051 L28.363,24.0051 C29.482,28.5821 31.208,30.9021 33.489,30.9021 L33.489,30.9021 L33.501,30.9021 C37.534,30.8891 40.844,23.2681 41.982,18.4691 L41.982,18.4691 L42.23,17.4251 L40.144,16.9311 L39.896,17.9731 C39.253,20.6831 38.166,23.4351 36.913,25.5211 L36.913,25.5211 C35.698,27.5441 34.419,28.7551 33.493,28.7581 L33.493,28.7581 L33.49,28.7581 C32.39,28.7581 31.252,26.7911 30.445,23.4951 L30.445,23.4951 C29.568,19.9101 29.191,15.5471 28.858,11.6991 L28.858,11.6991 C28.303,5.2981 27.965,2.1811 26.338,1.2621 L26.338,1.2621 C25.78,0.9461 25.124,0.9411 24.493,1.2511 L24.493,1.2511 C22.607,2.1741 21.602,5.0961 21.092,9.8211 L21.092,9.8211 C20.293,4.4221 19.415,1.0971 17.832,0.2371 L17.832,0.2371 C17.54,0.0791 17.23,9.99999975e-05 16.915,9.99999975e-05 L16.915,9.99999975e-05 C16.616,9.99999975e-05 16.314,0.0721 16.022,0.2161" id="path-1"></path>
        <linearGradient x1="100%" y1="34.1529275%" x2="11.6919715%" y2="92.83%" id="linearGradient-3">
            <stop stop-color="#00BB77" offset="0%"></stop>
            <stop stop-color="#644DF0" offset="100%"></stop>
        </linearGradient>
    </defs>
    <g id="stub-logo" stroke="none" stroke-width="1" fill="none" fill-rule="evenodd">
        <g id="Group-14" transform="translate(1.000000, 1.000000)">
            <mask id="mask-2" fill="white">
                <use xlink:href="#path-1"></use>
            </mask>
            <g id="Clip-2"></g>
            <path d="M16.022,0.2161 C14.885,0.7751 13.349,2.4061 13.14,10.0791 L13.14,10.0791 C13.13,10.4441 13.124,10.8121 13.119,11.1821 L13.119,11.1821 C11.932,6.5621 10.888,4.1901 9.411,3.7111 L9.411,3.7111 C9.031,3.5881 8.281,3.4851 7.516,4.1751 L7.516,4.1751 C5.409,6.0761 5.596,10.9571 6.497,17.1541 L6.497,17.1541 C5.402,15.1631 4.166,13.5591 2.924,13.2371 L2.924,13.2371 C2.258,13.0641 1.618,13.2291 1.122,13.7011 L1.122,13.7011 C0.388,14.4021 0.005,15.9751 0,18.0621 L0,18.0621 L0,18.1531 C0.004,19.4761 0.157,21.0001 0.466,22.6371 L0.466,22.6371 C1.16,26.3131 2.921,32.0001 7.362,38.2131 L7.362,38.2131 L7.986,39.0851 L9.73,37.8381 L9.106,36.9651 C4.947,31.1481 3.276,25.8421 2.606,22.4141 L2.606,22.4141 C1.866,18.6211 2.172,16.0701 2.523,15.3771 L2.523,15.3771 C2.87,15.5971 3.664,16.3881 4.775,18.4671 L4.775,18.4671 C5.927,20.6251 7.121,23.6101 8.133,26.8691 L8.133,26.8691 L10.213,26.3701 C10.093,25.6661 9.968,24.9571 9.844,24.2461 L9.844,24.2461 C9.113,20.0621 8.357,15.7351 8.101,12.2641 L8.101,12.2641 C7.791,8.0651 8.32,6.4561 8.86,5.8601 L8.86,5.8601 C9.129,6.1571 9.768,7.1431 10.672,10.3311 L10.672,10.3311 C11.433,13.0101 12.14,16.3281 12.824,19.5381 L12.824,19.5381 C13.199,21.2991 13.554,22.9631 13.9,24.4421 L13.9,24.4421 L16.01,24.0771 C15.742,21.7131 15.134,15.6241 15.283,10.1361 L15.283,10.1361 C15.423,4.9981 16.213,2.6751 16.889,2.1891 L16.889,2.1891 C17.114,2.4211 17.75,3.3681 18.459,7.0581 L18.459,7.0581 C19.014,9.9461 19.442,13.5161 19.855,16.9691 L19.855,16.9691 C20.115,19.1441 20.361,21.1981 20.624,22.9441 L20.624,22.9441 L22.756,22.7831 C22.756,18.5111 22.79,14.0211 23.197,10.2091 L23.197,10.2091 C23.769,4.8651 24.838,3.5471 25.353,3.2241 L25.353,3.2241 C25.497,3.4421 25.79,4.0721 26.068,5.7891 L26.068,5.7891 C26.335,7.4271 26.523,9.5921 26.721,11.8831 L26.721,11.8831 C27.061,15.8091 27.446,20.2581 28.363,24.0051 L28.363,24.0051 C29.482,28.5821 31.208,30.9021 33.489,30.9021 L33.489,30.9021 L33.501,30.9021 C37.534,30.8891 40.844,23.2681 41.982,18.4691 L41.982,18.4691 L42.23,17.4251 L40.144,16.9311 L39.896,17.9731 C39.253,20.6831 38.166,23.4351 36.913,25.5211 L36.913,25.5211 C35.698,27.5441 34.419,28.7551 33.493,28.7581 L33.493,28.7581 L33.49,28.7581 C32.39,28.7581 31.252,26.7911 30.445,23.4951 L30.445,23.4951 C29.568,19.9101 29.191,15.5471 28.858,11.6991 L28.858,11.6991 C28.303,5.2981 27.965,2.1811 26.338,1.2621 L26.338,1.2621 C25.78,0.9461 25.124,0.9411 24.493,1.2511 L24.493,1.2511 C22.607,2.1741 21.602,5.0961 21.092,9.8211 L21.092,9.8211 C20.293,4.4221 19.415,1.0971 17.832,0.2371 L17.832,0.2371 C17.54,0.0791 17.23,9.99999975e-05 16.915,9.99999975e-05 L16.915,9.99999975e-05 C16.616,9.99999975e-05 16.314,0.0721 16.022,0.2161" id="Fill-1" fill="url(#linearGradient-3)"></path>
            <path d="M73.9625,17.7907 L71.2645,17.7907 L71.2645,14.6827 L74.1105,14.6827 L74.1105,14.3657 L74.1105,11.4057 L74.1105,11.1897 L74.3135,11.1357 L77.1595,10.3407 L77.5845,10.3407 L77.5845,14.6627 L81.5775,14.6627 L81.5775,17.7967 L77.5985,17.7967 L77.5985,18.1137 L77.5985,26.0297 C77.6025,26.3217 77.6345,26.6127 77.6925,26.8987 C77.8285,27.6847 78.5145,28.2557 79.3115,28.2477 C79.9615,28.3017 80.6155,28.2467 81.2475,28.0857 L81.6795,28.0857 L81.6795,31.1397 L81.5105,31.1797 C79.9615,31.5747 78.3375,31.5747 76.7885,31.1797 C75.2875,30.7877 74.1895,29.5017 74.0365,27.9577 C73.9705,27.5107 73.9345,27.0607 73.9285,26.6087 L73.9285,18.1277 L73.9625,17.7907 Z" id="Fill-4" fill="#FFFFFF"></path>
            <path d="M85.3551,14.4757 L89.0001,14.4757 L89.0001,14.7867 L89.0001,24.2527 C89.0021,24.7967 89.0781,25.3377 89.2221,25.8617 C89.4731,26.9067 90.3171,27.7027 91.3721,27.8907 C92.1591,28.0677 92.9771,28.0507 93.7561,27.8427 C94.8961,27.5397 95.7231,26.5527 95.8261,25.3747 C95.8981,24.9487 95.9391,24.5167 95.9471,24.0837 L95.9471,14.8067 L95.9471,14.4827 L99.5981,14.4827 L99.5981,14.6177 L99.5981,25.1317 C99.5881,28.0877 97.4621,30.6097 94.5581,31.1087 C92.9841,31.4397 91.3521,31.3867 89.8011,30.9537 C87.4091,30.2757 85.6701,28.2017 85.4161,25.7197 C85.3811,25.4547 85.3631,25.1887 85.3611,24.9217 L85.3611,14.7327 L85.3551,14.4757 Z" id="Fill-6" fill="#FFFFFF"></path>
            <path d="M55.0299,25.672 L58.6889,25.672 C58.6889,25.847 58.6889,26.015 58.7489,26.176 C58.9799,27.269 59.8889,28.085 60.9959,28.192 C61.9889,28.392 63.0159,28.341 63.9859,28.044 C64.4479,27.942 64.8429,27.641 65.0659,27.22 C65.2879,26.8 65.3159,26.303 65.1429,25.86 C64.9749,25.461 64.6649,25.14 64.2729,24.96 C63.6699,24.694 63.0329,24.513 62.3809,24.422 C61.1759,24.166 59.9519,23.951 58.7689,23.609 C57.8009,23.338 56.9529,22.742 56.3669,21.922 C55.6529,20.906 55.3809,19.642 55.6139,18.421 C55.8479,17.199 56.5669,16.127 57.6049,15.449 C58.5269,14.868 59.5709,14.509 60.6549,14.401 C61.9239,14.24 63.2109,14.327 64.4469,14.656 C65.7429,14.987 66.8839,15.759 67.6769,16.841 C68.2619,17.684 68.5729,18.689 68.5669,19.717 L64.9749,19.717 C64.9749,19.589 64.9349,19.442 64.9019,19.3 C64.7349,18.385 64.0399,17.658 63.1359,17.452 C62.1719,17.165 61.1389,17.215 60.2069,17.593 C59.3629,17.901 58.9169,18.829 59.2029,19.684 C59.3249,20.093 59.6329,20.42 60.0329,20.564 C60.6119,20.763 61.2009,20.929 61.7989,21.061 C63.0629,21.357 64.3399,21.579 65.5839,21.935 C66.5749,22.195 67.4579,22.765 68.1059,23.562 C68.5929,24.214 68.8739,24.998 68.9149,25.813 C69.1449,27.277 68.6089,28.757 67.4969,29.731 C66.7779,30.357 65.9309,30.816 65.0159,31.075 C63.6829,31.448 62.2909,31.563 60.9159,31.411 C59.6859,31.34 58.4939,30.951 57.4579,30.282 C56.0839,29.383 55.2039,27.893 55.0769,26.25 C55.0769,26.068 55.0429,25.887 55.0299,25.678" id="Fill-8" fill="#FFFFFF"></path>
            <path d="M115.8082,22.8815 C115.7542,22.3815 115.7272,21.8685 115.6532,21.3685 C115.5302,20.4465 115.1712,19.5725 114.6112,18.8295 C113.5082,17.3705 111.1012,17.3435 109.8762,17.9585 C109.1302,18.3285 108.5472,18.9615 108.2402,19.7345 C107.3232,21.7915 107.3452,24.1445 108.3012,26.1835 C108.7082,27.1685 109.5722,27.8915 110.6142,28.1215 C111.2602,28.2665 111.9302,28.2805 112.5812,28.1625 C113.6242,28.0045 114.5282,27.3565 115.0102,26.4205 C115.5532,25.3195 115.8272,24.1075 115.8082,22.8815 L115.8082,22.8815 Z M104.0392,7.4305 L107.6992,7.4305 L107.6992,16.8035 C107.7532,16.7155 107.8542,16.5605 107.8812,16.5275 C108.8612,15.1465 110.4552,14.3335 112.1492,14.3525 C113.7052,14.2055 115.2622,14.6385 116.5182,15.5685 C117.8022,16.5905 118.6992,18.0205 119.0612,19.6195 C119.7342,22.0435 119.6472,24.6145 118.8112,26.9865 C117.9912,29.7385 115.4072,31.5845 112.5352,31.4705 C111.4022,31.5105 110.2822,31.2295 109.3022,30.6615 C108.7722,30.3215 108.3132,29.8835 107.9492,29.3705 L107.6922,29.3705 L107.2872,31.1805 L104.0392,31.1805 L104.0392,7.4305 Z" id="Fill-10" fill="#FFFFFF"></path>
        </g>
    </g>
</svg>