<?xml version="1.0" encoding="UTF-8"?>
<svg width="121px" height="60px" viewBox="0 0 121 60" version="1.1" xmlns="http://www.w3.org/2000/svg" xmlns:xlink="http://www.w3.org/1999/xlink">
    <title>stub-logo</title>
    <g id="stub-logo" stroke="none" stroke-width="1" fill="none" fill-rule="evenodd">
        <g transform="translate(12.000000, 12.000000)" fill="#557180">
            <path d="M91.12,22.88 C91.04,22.14 91,21.38 90.89,20.64 C90.7088049,19.2750205 90.1783632,17.9799159 89.35,16.88 C87.72,14.72 84.16,14.68 82.35,15.59 C81.2468635,16.1385804 80.3850988,17.0751263 79.93,18.22 C78.5742548,21.2658798 78.6070915,24.7502122 80.02,27.77 C80.622911,29.227765 81.89972,30.2992392 83.44,30.64 C84.3962042,30.854591 85.3857631,30.8749943 86.35,30.7 C87.8911973,30.4655506 89.2263816,29.506003 89.94,28.12 C90.7425219,26.491346 91.1469431,24.6954419 91.12,22.88 L91.12,22.88 Z M73.72,0 L79.13,0 L79.13,13.88 C79.21,13.75 79.36,13.52 79.4,13.47 C80.8473932,11.426116 83.2056712,10.2226842 85.71,10.25 C88.0116563,10.0324984 90.3124673,10.6735913 92.17,12.05 C94.0679459,13.5653229 95.393921,15.6812405 95.93,18.05 C96.9245997,21.6390119 96.7954692,25.4466183 95.56,28.96 C94.3475476,33.0339701 90.5272619,35.7674504 86.28,35.6 C84.6054172,35.6584647 82.9484046,35.2424783 81.5,34.4 C80.7169555,33.8975592 80.0379377,33.2490972 79.5,32.49 L79.12,32.49 L78.52,35.17 L73.72,35.17 L73.72,0 Z" id="Fill-1-2"></path>
            <path d="M0.97,27.02 L6.44,27.02 C6.44,27.28 6.44,27.53 6.53,27.77 C6.87566853,29.3958823 8.23549569,30.6100137 9.89,30.77 C11.375271,31.0673872 12.9111095,30.9917978 14.36,30.55 C15.0516791,30.3973202 15.6417422,29.9492673 15.9745745,29.3240043 C16.3074068,28.6987413 16.3495903,27.9590478 16.09,27.3 C15.839139,26.70671 15.3754175,26.2287202 14.79,25.96 C13.8877268,25.5650676 12.9355015,25.2958873 11.96,25.16 C10.16,24.78 8.33,24.46 6.56,23.95 C5.1124835,23.5464259 3.84602644,22.6609643 2.97,21.44 C1.9016359,19.9291721 1.49510906,18.0482036 1.84420348,16.2310256 C2.19329789,14.4138476 3.26786255,12.8174086 4.82,11.81 C6.19880381,10.9441411 7.75976226,10.410129 9.38,10.25 C11.2768397,10.0104862 13.2020843,10.139515 15.05,10.63 C16.9871448,11.1227394 18.6938607,12.2711508 19.88,13.88 C20.7545031,15.1351757 21.2190936,16.6302486 21.21,18.16 L15.84,18.16 C15.84,17.97 15.78,17.75 15.73,17.54 C15.4798518,16.1774995 14.4411602,15.0955291 13.09,14.79 C11.6482489,14.3627776 10.1042653,14.4368042 8.71,15 C7.44812004,15.4569943 6.78205168,16.837976 7.21,18.11 C7.391771,18.71885 7.85203899,19.2051009 8.45,19.42 C9.31517997,19.7167716 10.1966179,19.9638414 11.09,20.16 C12.98,20.6 14.89,20.93 16.75,21.46 C18.2311896,21.8471718 19.5512464,22.6945292 20.52,23.88 C21.2476256,24.8514233 21.6689224,26.0178235 21.73,27.23 C22.0733782,29.4086411 21.2725922,31.6108027 19.61,33.06 C18.5350548,33.9907987 17.2684299,34.6736153 15.9,35.06 C13.9070806,35.6151141 11.8265353,35.784816 9.77,35.56 C7.93077703,35.4544051 6.14997224,34.8757296 4.6,33.88 C2.54552226,32.5417891 1.2299346,30.3245065 1.04,27.88 C1.04,27.61 0.99,27.34 0.97,27.03" id="Fill-3-2"></path>
            <path d="M46.03,10.67 L51.44,10.67 L51.44,11.13 C51.44,15.79 51.44,20.44 51.44,25.13 C51.4437282,25.9344744 51.5547061,26.7348603 51.77,27.51 C52.1429189,29.0549346 53.3951021,30.2325364 54.96,30.51 C56.1284398,30.7718784 57.3428263,30.7478652 58.5,30.44 C60.1900911,29.9915878 61.4178039,28.5319293 61.57,26.79 C61.6780326,26.1587772 61.7382039,25.5202922 61.75,24.88 C61.75,20.31 61.75,15.73 61.75,11.16 L61.75,10.68 L67.17,10.68 L67.17,10.88 C67.17,16.07 67.17,21.25 67.17,26.43 C67.1550729,30.8024515 63.9996711,34.5315627 59.69,35.27 C57.3521821,35.7595522 54.9309975,35.680675 52.63,35.04 C49.07848,34.0385161 46.4981009,30.9706 46.12,27.3 C46.0684848,26.9087464 46.0417648,26.5146265 46.04,26.12 C46.04,21.12 46.04,16.12 46.04,11.05 L46.03,10.67 Z" id="Fill-5-2"></path>
            <path d="M29.06,15.28 L25.06,15.28 L25.06,10.67 L29.28,10.67 L29.28,10.2 C29.28,8.73 29.28,7.27 29.28,5.81 C29.28,5.73 29.28,5.62 29.28,5.49 L29.58,5.41 L33.8,4.23 L34.43,4.23 L34.43,10.64 L40.35,10.64 L40.35,15.29 L34.45,15.29 L34.45,15.76 C34.45,19.67 34.45,23.58 34.45,27.5 C34.456626,27.9334071 34.5034939,28.365262 34.59,28.79 C34.7910837,29.9551323 35.8077072,30.8023186 36.99,30.79 C37.9533565,30.8701883 38.9233414,30.7890746 39.86,30.55 L40.5,30.55 L40.5,35.08 L40.25,35.14 C37.9533309,35.7249782 35.5466691,35.7249782 33.25,35.14 C31.0239793,34.5570423 29.3961657,32.6499469 29.17,30.36 C29.07209,29.6976514 29.0186372,29.0294904 29.01,28.36 C29.01,24.16 29.01,19.97 29.01,15.78 L29.06,15.28 Z" id="Fill-7-2"></path>
        </g>
    </g>
</svg>