<?xml version="1.0" encoding="UTF-8"?>
<svg width="100px" height="40px" viewBox="0 0 100 40" version="1.1" xmlns="http://www.w3.org/2000/svg" xmlns:xlink="http://www.w3.org/1999/xlink">
    <!-- Generator: Sketch 63.1 (92452) - https://sketch.com -->
    <title>Logo</title>
    <desc>Created with Sketch.</desc>
    <g id="Logo" stroke="none" stroke-width="1" fill="none" fill-rule="evenodd">
        <g id="Group" transform="translate(2.000000, 2.000000)" fill-rule="nonzero">
            <path d="M85.536,8.64 C88.8960168,8.64 91.4159916,9.73598904 93.096,11.928 C94.7760084,14.120011 95.6639995,16.8639835 95.76,20.16 C95.7920002,20.5120018 95.808,20.991997 95.808,21.6 C95.808,22.208003 95.7920002,22.6879982 95.76,23.04 C95.6639995,26.3360165 94.7760084,29.079989 93.096,31.272 C91.4159916,33.464011 88.8960168,34.56 85.536,34.56 C82.0799827,34.56 79.4400091,33.3440122 77.616,30.912 L77.616,32.976 C77.616,33.2960016 77.512001,33.559999 77.304,33.768 C77.095999,33.976001 76.8320016,34.08 76.512,34.08 L74.496,34.08 C74.1759984,34.08 73.912001,33.976001 73.704,33.768 C73.495999,33.559999 73.392,33.2960016 73.392,32.976 L73.392,10.0581394 C73.4198207,9.56479619 73.8052575,9.16705326 74.2932209,9.12 L77.76,9.12 L77.76,12.192 C79.552009,9.82398816 82.143983,8.64 85.536,8.64 Z M84.624,12.384 C82.4479891,12.384 80.7760058,13.0959929 79.608,14.52 C78.4399942,15.9440071 77.8240003,17.6319902 77.76,19.584 C77.7311999,19.9008016 77.71536,20.4379167 77.71248,21.195359 L77.712,21.456 C77.712,22.3200043 77.7279998,22.9279982 77.76,23.28 C77.8240003,25.3280102 78.4239943,27.0959926 79.56,28.584 C80.6960057,30.0720074 82.3839888,30.816 84.624,30.816 C86.9280115,30.816 88.6079947,30.0960072 89.664,28.656 C90.7200053,27.2159928 91.2959995,25.3280117 91.392,22.992 C91.4240002,22.6719984 91.44,22.208003 91.44,21.6 C91.44,15.4559693 89.1680227,12.384 84.624,12.384 Z M76.656,0 C76.9760016,0 77.239999,0.10399896 77.448,0.312 C77.656001,0.52000104 77.76,0.7839984 77.76,1.104 L77.76,9.114 L73.6419248,4.99592477 C73.4937363,4.8283464 73.4008893,4.61069009 73.392,4.37157221 L73.392,1.104 C73.392,0.75199824 73.495999,0.48000096 73.704,0.288 C73.912001,0.09599904 74.1759984,0 74.496,0 L76.656,0 Z" id="Combined-Shape" fill="#00C77F"></path>
            <path d="M28.3532287,5.11722867 C28.185451,4.93837406 28.082698,4.69779188 28.082698,4.43321045 C28.082698,4.42586754 28.0817808,4.41945286 28.08,4.41392879 L28.08,1.104 C28.08,0.7839984 28.175999,0.52000104 28.368,0.312 C28.560001,0.10399896 28.8159984,3.55271368e-15 29.136,3.55271368e-15 L31.248,3.55271368e-15 C31.5680016,3.55271368e-15 31.831999,0.10399896 32.04,0.312 C32.248001,0.52000104 32.352,0.7839984 32.352,1.104 L32.352,9.12 L38.304,9.12 C38.6240016,9.12 38.887999,9.22399896 39.096,9.432 C39.304001,9.64000104 39.408,9.9039984 39.408,10.224 L39.408,11.76 C39.408,12.0800016 39.304001,12.335999 39.096,12.528 C38.887999,12.720001 38.6240016,12.816 38.304,12.816 L32.352,12.816 L32.352,25.344 C32.352,26.9760082 32.6159974,28.2079958 33.144,29.04 C33.6720026,29.8720042 34.5759936,30.288 35.856,30.288 L38.784,30.288 C39.1040016,30.288 39.359999,30.391999 39.552,30.6 C39.744001,30.808001 39.84,31.0719984 39.84,31.392 L39.84,32.976 C39.84,33.2960016 39.744001,33.559999 39.552,33.768 C39.359999,33.976001 39.1040016,34.08 38.784,34.08 L35.52,34.08 C30.5599752,34.08 28.08,31.280028 28.08,25.68 L28.08,12.816 L24.288,12.816 C23.9679984,12.816 23.712001,12.720001 23.52,12.528 C23.327999,12.335999 23.232,12.0800016 23.232,11.76 L23.232,10.224 C23.232,9.9039984 23.327999,9.64000104 23.52,9.432 C23.712001,9.22399896 23.9679984,9.12 24.288,9.12 L26.184,9.12 L32.356,9.12 L28.3532287,5.11722867 Z" id="Path-Copy-2" fill="#282F82"></path>
            <path d="M10.08,34.56 C7.87198896,34.56 6.0080076,34.2000036 4.488,33.48 C2.9679924,32.7599964 1.84000368,31.9360046 1.104,31.008 C0.36799632,30.0799954 -1.24344979e-14,29.312003 -1.24344979e-14,28.704 C-1.24344979e-14,28.3839984 0.11199888,28.1360009 0.336,27.96 C0.56000112,27.7839991 0.79999872,27.696 1.056,27.696 L3.072,27.696 C3.26400096,27.696 3.41599944,27.7279997 3.528,27.792 C3.64000056,27.8560003 3.79199904,27.9999989 3.984,28.224 C4.72000368,29.1200045 5.54399544,29.8239974 6.456,30.336 C7.36800456,30.8480026 8.59199232,31.104 10.128,31.104 C11.8560086,31.104 13.2399948,30.7840032 14.28,30.144 C15.3200052,29.5039968 15.84,28.5760061 15.84,27.36 C15.84,26.559996 15.6160022,25.9200024 15.168,25.44 C14.7199978,24.9599976 13.9760052,24.5280019 12.936,24.144 C11.8959948,23.7599981 10.3520102,23.3440022 8.304,22.896 C5.51998608,22.287997 3.55200576,21.4080058 2.4,20.256 C1.24799424,19.1039942 0.672,17.6160091 0.672,15.792 C0.672,14.6079941 1.02399648,13.4640055 1.728,12.36 C2.43200352,11.2559945 3.47999304,10.3600034 4.872,9.672 C6.26400696,8.98399656 7.9199904,8.64 9.84,8.64 C11.8560101,8.64 13.5759929,8.97599664 15,9.648 C16.4240071,10.3200034 17.4959964,11.1039955 18.216,12 C18.9360036,12.8960045 19.296,13.647997 19.296,14.256 C19.296,14.5440014 19.192001,14.783999 18.984,14.976 C18.775999,15.168001 18.5280014,15.264 18.24,15.264 L16.416,15.264 C15.9679978,15.264 15.648001,15.0880018 15.456,14.736 C14.9119973,14.127997 14.4560018,13.6560017 14.088,13.32 C13.7199982,12.9839983 13.1840035,12.6960012 12.48,12.456 C11.7759965,12.2159988 10.8960053,12.096 9.84,12.096 C8.27199216,12.096 7.07200416,12.4239967 6.24,13.08 C5.40799584,13.7360033 4.992,14.6079946 4.992,15.696 C4.992,16.3680034 5.16799824,16.9359977 5.52,17.4 C5.87200176,17.8640023 6.54399504,18.295998 7.536,18.696 C8.52800496,19.096002 10,19.5039979 11.952,19.92 C14.9920152,20.5600032 17.1439937,21.4719941 18.408,22.656 C19.6720063,23.8400059 20.304,25.3599907 20.304,27.216 C20.304,28.5920069 19.9120039,29.8399944 19.128,30.96 C18.3439961,32.0800056 17.1760078,32.9599968 15.624,33.6 C14.0719922,34.2400032 12.2240107,34.56 10.08,34.56 Z" id="Path-Copy-3" fill="#00C77F"></path>
            <path d="M53.856,34.56 C50.8159848,34.56 48.4640083,33.5760098 46.8,31.608 C45.1359917,29.6399902 44.304,27.0240163 44.304,23.76 L44.304,10.224 C44.304,9.9039984 44.407999,9.64000104 44.616,9.432 C44.824001,9.22399896 45.0879984,9.12 45.408,9.12 L47.616,9.12 C47.9360016,9.12 48.199999,9.22399896 48.408,9.432 C48.616001,9.64000104 48.72,9.9039984 48.72,10.224 L48.72,23.52 C48.72,28.3840243 50.8319789,30.816 55.056,30.816 C57.1040102,30.816 58.727994,30.1680065 59.928,28.872 C61.128006,27.5759935 61.728,25.7920114 61.728,23.52 L61.728,10.224 C61.728,9.9039984 61.831999,9.64000104 62.04,9.432 C62.248001,9.22399896 62.5119984,9.12 62.832,9.12 L65.04,9.12 C65.3600016,9.12 65.623999,9.22399896 65.832,9.432 C66.040001,9.64000104 66.144,9.9039984 66.144,10.224 L66.144,32.976 C66.144,33.2960016 66.040001,33.559999 65.832,33.768 C65.623999,33.976001 65.3600016,34.08 65.04,34.08 L62.976,34.08 C62.6559984,34.08 62.392001,33.976001 62.184,33.768 C61.975999,33.559999 61.872,33.2960016 61.872,32.976 L61.872,30.816 C60.9439954,32.0640062 59.8560062,32.9999969 58.608,33.624 C57.3599938,34.2480031 55.7760096,34.56 53.856,34.56 Z" id="Path-Copy-4" fill="#00C77F"></path>
        </g>
    </g>
</svg>