<?xml version="1.0" encoding="UTF-8"?>
<svg width="140px" height="60px" viewBox="0 0 140 60" version="1.1" xmlns="http://www.w3.org/2000/svg" xmlns:xlink="http://www.w3.org/1999/xlink">
    <title>stub-logo</title>
    <g id="stub-logo" stroke="none" stroke-width="1" fill="none" fill-rule="evenodd">
        <g transform="translate(8.000000, 8.000000)" fill="#00CC78">
            <path d="M104.78,27.01 C104.7,26.13 104.65,25.24 104.52,24.37 C104.301458,22.7560767 103.675066,21.2245134 102.7,19.92 C100.78,17.38 96.57,17.33 94.38,18.41 C93.0769576,19.0521708 92.060601,20.1576815 91.53,21.51 C89.9212976,25.1021366 89.957809,29.2169752 91.63,32.78 C92.3320176,34.4918011 93.8250652,35.7534263 95.63,36.16 C96.7557613,36.4215077 97.9232708,36.4487382 99.06,36.24 C100.879548,35.9593705 102.45532,34.8258554 103.3,33.19 C104.282836,31.2788815 104.790509,29.1590069 104.78,27.01 L104.78,27.01 Z M84.24,0.01 L90.64,0.01 L90.64,16.36 L90.95,15.87 C92.6582887,13.4563795 95.4432027,12.0358865 98.4,12.07 C101.11689,11.8211422 103.830919,12.5752367 106.03,14.19 C108.266931,15.9810012 109.831832,18.4763848 110.47,21.27 C111.641711,25.5041946 111.488154,29.9957153 110.03,34.14 C108.603588,38.9779419 104.069637,42.2258993 99.03,42.02 C97.0576891,42.08043 95.1077221,41.5886088 93.4,40.6 C92.4641829,40.0053417 91.6497644,39.238431 91,38.34 L90.55,38.34 C90.23,39.76 90,40.81 89.85,41.5 L84.24,41.5 L84.24,0.01 Z" id="Fill-1"></path>
            <path d="M-1.77635684e-15,31.88 L6.46,31.88 C6.46,32.19 6.46,32.49 6.57,32.78 C6.97925435,34.7132356 8.60183872,36.1532792 10.57,36.33 C12.3178642,36.6795363 14.1251268,36.590204 15.83,36.07 C16.6482047,35.8908317 17.3467439,35.3619957 17.7412044,34.6231039 C18.1356648,33.8842121 18.1863942,33.0095401 17.88,32.23 C17.5802503,31.5340368 17.0359677,30.9719672 16.35,30.65 C15.2874648,30.1782298 14.1626265,29.8616586 13.01,29.71 C10.88,29.25 8.73,28.87 6.64,28.28 C4.9254439,27.7937507 3.42910491,26.7350203 2.4,25.28 C1.13004966,23.499344 0.644504493,21.2763873 1.05634584,19.1283891 C1.4681872,16.9803908 2.74150089,15.0946648 4.58,13.91 C6.20358598,12.9039088 8.03825293,12.2877893 9.94,12.11 C12.1742268,11.8251838 14.4424351,11.9745867 16.62,12.55 C18.9070104,13.1320693 20.92143,14.489152 22.32,16.39 C23.357087,17.8684547 23.9060237,19.6341426 23.89,21.44 L17.56,21.44 C17.56,21.21 17.48,20.96 17.43,20.71 C17.1320425,19.1065288 15.9099329,17.8333343 14.32,17.47 C12.61526,16.9608925 10.7877894,17.0490909 9.14,17.72 C7.65044931,18.2529784 6.86291642,19.8814362 7.37,21.38 C7.58898572,22.0990869 8.13351535,22.6732508 8.84,22.93 C9.86018538,23.2759806 10.8983751,23.5664067 11.95,23.8 C14.18,24.32 16.44,24.71 18.63,25.34 C20.378015,25.7948216 21.9384566,26.788466 23.09,28.18 C23.9398297,29.3292555 24.4335777,30.7027094 24.51,32.13 C24.910208,34.7021869 23.9625319,37.2998011 22,39.01 C20.7253343,40.0837176 19.2351297,40.8714459 17.63,41.32 C15.2752141,41.9700473 12.8189644,42.1702113 10.39,41.91 C8.21809358,41.781178 6.11655349,41.0921485 4.29,39.91 C1.88982219,38.3464729 0.344088053,35.7641008 0.1,32.91 C0.1,32.59 0.04,32.27 -1.77635684e-15,31.91" id="Fill-3"></path>
            <path d="M52.15,12.59 L58.54,12.59 L58.54,13.14 C58.54,18.63 58.54,24.14 58.54,29.61 C58.544106,30.5598675 58.6752694,31.5049167 58.93,32.42 C59.3764002,34.232142 60.858859,35.6044978 62.7,35.91 C64.076031,36.2255372 65.5088643,36.1946127 66.87,35.82 C68.8661307,35.2962388 70.3185761,33.5757113 70.5,31.52 C70.6198915,30.7995252 70.6800959,30.070382 70.68,29.34 C70.68,23.94 70.68,18.54 70.68,13.14 L70.68,12.6 L77.07,12.6 L77.07,12.87 C77.07,18.98 77.07,25.1 77.07,31.21 C77.0360773,36.3664891 73.3193689,40.7608759 68.24,41.65 C65.4782434,42.226331 62.6186962,42.1337557 59.9,41.38 C55.720363,40.1825246 52.6882908,36.5646211 52.24,32.24 C52.1851813,31.778608 52.1551382,31.3146088 52.15,30.85 L52.15,12.59 L52.15,12.59 Z" id="Fill-5"></path>
            <path d="M32.63,18.01 L27.89,18.01 L27.89,12.59 L32.89,12.59 L32.89,12.01 C32.89,10.29 32.89,8.56 32.89,6.83 C32.89,6.74 32.89,6.61 32.89,6.46 L33.24,6.36 C34.91,5.91 36.56,5.43 38.24,4.97 L38.99,4.97 L38.99,12.54 L45.99,12.54 L45.99,18.01 L38.99,18.01 L38.99,18.56 C38.99,23.18 38.99,27.8 38.99,32.42 C38.9991087,32.9550815 39.0627715,33.4878385 39.18,34.01 C39.4113179,35.3889279 40.6118783,36.3943442 42.01,36.38 C43.1443978,36.4722435 44.2862445,36.3776526 45.39,36.1 L46.15,36.1 L46.15,41.41 L45.86,41.48 C43.1634377,42.1699837 40.3365623,42.1699837 37.64,41.48 C35.0079683,40.7993616 33.0821739,38.5459424 32.82,35.84 C32.7013097,35.058773 32.6378191,34.2701531 32.63,33.48 C32.63,28.48 32.63,23.59 32.63,18.64 L32.63,18.01 Z" id="Fill-7"></path>
        </g>
    </g>
</svg>