<?xml version="1.0" encoding="UTF-8"?>
<svg width="200px" height="60px" viewBox="0 0 200 60" version="1.1" xmlns="http://www.w3.org/2000/svg" xmlns:xlink="http://www.w3.org/1999/xlink">
    <title>stub-logo</title>
    <defs>
        <linearGradient x1="69.4680039%" y1="11.617386%" x2="11.6919715%" y2="92.32%" id="linearGradient-1">
            <stop stop-color="#00BB77" offset="0%"></stop>
            <stop stop-color="#4E81FF" offset="99.9577703%"></stop>
        </linearGradient>
    </defs>
    <g id="stub-logo" stroke="none" stroke-width="1" fill="none" fill-rule="evenodd">
        <g transform="translate(92.000000, 14.000000)" fill="#FFFFFF">
            <path d="M80.9760431,20.5620831 C80.90259,19.8970507 80.8658635,19.2140444 80.7648655,18.549012 C80.5984988,17.3223153 80.1114666,16.1584146 79.3508939,15.1699284 C77.8542875,13.2287528 74.5856258,13.1928051 72.9237501,14.0106152 C71.9108905,14.5036203 71.1196498,15.345287 70.7017947,16.3741763 C69.4569991,19.1114855 69.4871485,22.2428287 70.7844294,24.9566892 C71.3380002,26.2667715 72.5103195,27.2296973 73.9245482,27.5359365 C74.8024999,27.7287878 75.7110766,27.747124 76.5964037,27.589858 C78.0114746,27.3791601 79.237392,26.516822 79.8926103,25.2712315 C80.6294565,23.8075725 81.0007812,22.193607 80.9760431,20.5620831 L80.9760431,20.5620831 Z M65,0 L69.967264,0 L69.967264,12.4738511 C70.040717,12.3570211 70.1784415,12.1503218 70.2151681,12.1053872 C71.5441116,10.2685641 73.7093961,9.187049 76.0087791,9.21159755 C78.1220756,9.01613051 80.2345961,9.59227583 81.9401146,10.8292439 C83.6827391,12.1910532 84.9002009,14.0926123 85.392409,16.2213986 C86.3056141,19.4468165 86.1870511,22.8686836 85.0526885,26.0261332 C83.9394591,29.6873793 80.4318127,32.1439374 76.5321322,31.993451 C74.9945916,32.0459928 73.4731833,31.6721489 72.1433112,30.9150201 C71.4243484,30.4634803 70.8008991,29.8807124 70.3069844,29.1985175 L69.9580823,29.1985175 L69.4071843,31.6070132 L65,31.6070132 L65,0 Z" id="Fill-1-2"></path>
            <path d="M0,24.2175064 L4.98745801,24.2175064 C4.98745801,24.4518023 4.98745801,24.6770868 5.06951856,24.8933599 C5.38469357,26.3585042 6.62456209,27.4526041 8.13311251,27.5967738 C9.48735872,27.8647607 10.8877115,27.7966443 12.2087866,27.3985235 C12.8394485,27.2609379 13.3774586,26.8571804 13.6809297,26.2937322 C13.9844008,25.730284 14.022863,25.0637181 13.7861728,24.4698251 C13.5574417,23.9351889 13.134628,23.5044542 12.6008537,23.2623002 C11.7781755,22.9064116 10.9099518,22.663843 10.0205052,22.5413898 C8.37929417,22.1989574 6.71072961,21.9105932 5.09687208,21.4510128 C3.77704982,21.0873369 2.62231464,20.2894138 1.82356783,19.1891565 C0.849450624,17.8276922 0.478785993,16.13268 0.797084668,14.4951519 C1.11538334,12.8576238 2.09515411,11.419012 3.51036807,10.5111978 C4.76753921,9.7309395 6.19079601,9.24972092 7.66810272,9.10542261 C9.39761068,8.88958765 11.1530177,9.00586035 12.8379175,9.44785504 C14.604175,9.89188124 16.1603311,10.9267583 17.2418338,12.3765535 C18.0391917,13.50764 18.4627978,14.8549069 18.4545064,16.233424 L13.5582268,16.233424 C13.5582268,16.0622078 13.5035198,15.8639574 13.4579306,15.6747184 C13.2298494,14.4469175 12.2827872,13.4719129 11.050821,13.196589 C9.73625557,12.8116027 8.32847617,12.8783109 7.05720749,13.385828 C5.90664565,13.7976429 5.29933523,15.042098 5.68953162,16.1883671 C5.85526749,16.7370249 6.27493245,17.175204 6.82014368,17.3688578 C7.60900086,17.63629 8.41268178,17.8589339 9.22725321,18.0356999 C10.9505248,18.4322006 12.6920321,18.7295762 14.3879502,19.2071793 C15.738475,19.5560745 16.9420815,20.3196604 17.8253755,21.3879332 C18.4888128,22.2633196 18.8729445,23.3144071 18.9286341,24.4067454 C19.2417208,26.3700016 18.511577,28.3544531 16.9956522,29.6603798 C16.0155344,30.4991578 14.8606462,31.1144698 13.6129338,31.4626557 C11.7958219,31.9628902 9.89881424,32.115815 8.02369844,31.9132247 C6.34672452,31.8180691 4.72301536,31.2966027 3.30977561,30.3993129 C1.43653585,29.1934003 0.237004187,27.1953227 0.063824874,24.9924851 C0.063824874,24.7491778 0.0182356783,24.5058706 0,24.2265178" id="Fill-3-2"></path>
            <path d="M40,10 L44.8623463,10 L44.8623463,10.4061525 C44.8623463,14.5206544 44.8623463,18.6263268 44.8623463,22.7673168 C44.8656971,23.4776197 44.9654407,24.1843127 45.1589404,24.8687148 C45.4941087,26.2327998 46.6195336,27.2725519 48.026017,27.5175357 C49.0761758,27.7487587 50.16763,27.7275564 51.2076632,27.4557299 C52.7266665,27.0598087 53.8300981,25.7710173 53.9668874,24.2329977 C54.0639838,23.6756657 54.1180641,23.1119215 54.128666,22.5465818 C54.128666,18.5115446 54.128666,14.467678 54.128666,10.4326408 L54.128666,10.0088294 L59,10.0088294 L59,10.1854175 C59,14.7678777 59,19.3415084 59,23.9151392 C58.986584,27.7757529 56.1506032,31.0683355 52.2771996,31.7203315 C50.1760388,32.1525769 47.9999504,32.0829331 45.9318827,31.5172553 C42.7398826,30.6330048 40.4207151,27.924218 40.0808893,24.6832973 C40.034589,24.3378437 40.0105738,23.9898594 40.0089877,23.6414277 C40.0089877,19.2267262 40.0089877,14.8120247 40.0089877,10.3355173 L40,10 Z" id="Fill-5-2"></path>
            <path d="M24.626943,13.8696172 L21,13.8696172 L21,9.75206647 L24.8264249,9.75206647 L24.8264249,9.3322728 C24.8264249,8.01930111 24.8264249,6.71526119 24.8264249,5.41122128 C24.8264249,5.33976704 24.8264249,5.24151745 24.8264249,5.12540431 L25.0984456,5.05395007 L28.9248705,4 L29.496114,4 L29.496114,9.72527113 L34.8639896,9.72527113 L34.8639896,13.8785489 L29.5142487,13.8785489 L29.5142487,14.2983426 C29.5142487,17.7906687 29.5142487,21.2829948 29.5142487,24.7842526 C29.5202567,25.1713623 29.5627536,25.5570856 29.6411917,25.9364523 C29.8235215,26.9771228 30.7453304,27.733811 31.8173575,27.7228083 C32.6908673,27.7944308 33.5703873,27.7219818 34.4196891,27.5084456 L35,27.5084456 L35,31.554542 L34.7733161,31.6081327 C32.6908441,32.1306224 30.5086378,32.1306224 28.4261658,31.6081327 C26.4077533,31.0874477 24.9317565,29.384072 24.7266839,27.3387418 C24.6379055,26.7471465 24.5894378,26.1503599 24.5816062,25.5523857 C24.5816062,21.801038 24.5816062,18.0586221 24.5816062,14.3162062 L24.626943,13.8696172 Z" id="Fill-7-2"></path>
        </g>
        <path d="M33.5978356,54 C22.0483857,36.8896459 23.3515256,26.6674147 25.2469093,24.8400955 C27.142293,23.0127763 31.5225263,29.8575893 34.667535,40.0963522 C32.7052044,28.5893165 29.6307917,15.164884 33.1967515,12.8509329 C36.7627113,10.5369818 40.2838738,26.9012417 42.5797661,36.7978357 C41.3925149,26.2165481 39.5426437,9.3721371 43.5036645,8.06557394 C47.4646854,6.75901079 49.5171326,25.2940908 51.0204126,35.3947166 C51.0204126,25.3492878 50.0270642,10.4470655 54.0702685,9.3721371 C58.1134728,8.29720867 57.4024687,24.804481 60.2113774,36.4103142 C64.0930476,52.4485778 71.5274415,40.0963522 74,29.5608867" id="Path-99" stroke="url(#linearGradient-1)" stroke-width="3" stroke-linecap="square"></path>
    </g>
</svg>