<?xml version="1.0" encoding="UTF-8"?>
<svg width="140px" height="140px" viewBox="0 0 140 140" version="1.1" xmlns="http://www.w3.org/2000/svg" xmlns:xlink="http://www.w3.org/1999/xlink">
    <title>tips</title>
    <g id="tips" stroke="none" stroke-width="1" fill="none" fill-rule="evenodd">
        <path d="M61.543852,117 C51.7334434,117 39,121.004935 39,124.198496 C39,127.392057 59.768205,133.310852 73.7307545,130.048682 C87.693304,126.786511 86.4100232,123.081952 81.9279087,121.158619 C77.4457941,119.235285 71.3542606,117 61.543852,117 Z" id="Path-100-Copy" fill-opacity="0.0976289336" fill="#92A5AD"></path>
        <g id="Group-2" transform="translate(42.000000, 9.000000)">
            <g id="Group">
                <path d="M11.4099239,78.4796666 C3.35585997,40.7098625 1.88293825e-14,26.7640887 1.88293825e-14,17.4669062 C1.88293825e-14,11.2687845 1.17777778,7.40618937 3.53333333,5.87912088 C8.70367245,17.7952167 12.4478226,29.5991552 14.7657839,41.2909364 C17.0837451,52.9827176 18.4260891,67.1221828 18.7928158,83.7093318 C19.2402638,105.402758 16.7792998,103.659536 11.4099239,78.4796666 Z" id="Path-28" fill="#00A86B"></path>
                <path d="M3.53333333,5.87912088 C1.57037037,15.3383239 1.17777778,23.3297195 2.35555556,29.8533078 C3.53333333,36.376896 7.81259259,52.6858667 15.1933333,78.7802198 C9.77555556,55.295302 6.28148148,39.9648696 4.71111111,32.7889225 C3.14074074,25.6129754 2.74814815,16.6430415 3.53333333,5.87912088 Z" id="Path-32" fill="#2D866C"></path>
                <path d="M32.3945187,86.9992569 C43.7251173,49.32323 51.779642,35.3338464 52.3963285,25.9691413 C52.8074528,19.7260046 51.8386681,15.7729208 49.4899743,14.1098901 C42.9029953,25.8934513 37.9517822,37.6206116 34.6363349,49.2913709 C31.3208876,60.9621303 28.2559293,74.9916058 25.44146,91.3797975 C22.5231,113.576788 24.8407863,112.116608 32.3945187,86.9992569 Z" id="Path-28" fill="#00A86B"></path>
                <path d="M27.0003429,74.4541937 C30.0074754,35.7146807 33.5957037,19.8933684 32.1257694,10.5688556 C31.1458132,4.35251369 29.0742604,0.829561834 25.9111111,0 C21.6695232,7.50647905 19.2179912,17.2924564 18.5565152,29.3579322 C17.8950393,41.4234079 18.6993886,58.216971 20.9695632,79.7386215 C22.985328,102.042012 24.9955878,100.280536 27.0003429,74.4541937 Z" id="Path-28" fill="#00A86B"></path>
                <path d="M25.9111111,0 C25.5185185,13.9760565 25.1259259,23.8893058 24.7333333,29.7397481 C24.5128521,33.0253751 22.845905,51.0957022 22.3777778,60.9421067 C22.1341592,66.0662849 22.5267518,72.404264 23.5555556,79.956044 C23.6346228,71.4985914 23.8309191,65.3231246 24.1444444,61.4296435 C24.7333333,54.1165907 26.5114633,36.193375 27.0888889,29.7397481 C27.8740741,20.9640847 27.4814815,11.0508353 25.9111111,0 Z" id="Path-31" fill="#2D866C"></path>
                <path d="M31.2111111,78.7802198 C31.8,67.2832723 40.6333333,43.3312983 42.9888889,38.0618641 C45.3444444,32.7924298 51.2333333,18.4212454 49.4666667,14.1098901 C52.4111111,21.2954823 47.1111111,33.7505088 44.1666667,39.4989825 C41.2222222,45.2474562 35.3333333,64.8880749 31.2111111,78.7802198 Z" id="Path-30" fill="#2D866C"></path>
            </g>
            <path d="M3,77 C3.79279279,80.9215686 6.76576577,93.6666667 11.9189189,115.235294 C16.4774775,116.411765 21.036036,117 25.5945946,117 C30.1531532,117 34.7117117,116.411765 39.2702703,115.235294 L47,77 C31.5405405,78.1764706 16.8738739,78.1764706 3,77 Z" id="Path-27" fill="#DEDBD6"></path>
            <path d="M2.78481013,78.1428571 C1.99156118,77.7619048 1.39662447,77 1,75.8571429 L1,70.0361236 C0.999998689,69.4838381 1.44771453,69.0361223 2,69.0361223 C2.01173584,69.0361223 2.02347077,69.0363288 2.03519933,69.0367419 C11.7129421,69.3776028 18.9037406,69.5558317 23.6075949,69.5714286 C28.7416517,69.5884519 36.5272153,69.4104243 46.9642858,69.0373459 C47.5162137,69.0176254 47.9796328,69.4490576 47.9993617,70.0009852 C47.9997872,70.0128879 48,70.0247973 48,70.0367076 C48,73.226915 48,75.1670601 48,75.8571429 C48,76.6190476 47.6033755,77.3809524 46.8101266,78.1428571 C31.3417722,79.2857143 16.6666667,79.2857143 2.78481013,78.1428571 Z" id="Path-27" fill="#B0B0B0"></path>
            <path d="M4,79 C12.75,111.388126 19.1666667,116.099126 32,116.099126 C28.5,117.865751 14.5,116.688001 12.75,115.510251 C11,114.332501 5.16666667,83.7110001 4,79 Z" id="Path-33" fill="#C8C8C8"></path>
        </g>
    </g>
</svg>