<?xml version="1.0" encoding="UTF-8"?>
<svg width="24px" height="24px" viewBox="0 0 24 24" version="1.1" xmlns="http://www.w3.org/2000/svg" xmlns:xlink="http://www.w3.org/1999/xlink">
    <title>twitter</title>
    <g id="twitter" stroke="none" stroke-width="1" fill="none" fill-rule="evenodd">
        <path d="M24,4.36529364 C23.1189152,4.76912426 22.1673436,5.03834468 21.1737799,5.15834006 C22.1905893,4.5329795 22.9689433,3.54301758 23.338624,2.36537056 C22.3870524,2.94227145 21.3327501,3.3653321 20.2124602,3.59147725 C19.3126289,2.61074574 18.0333687,2 16.6176342,2 C13.8993939,2 11.6963069,4.25991308 11.6963069,7.04826737 C11.6963069,7.44209838 11.7382991,7.82669897 11.8230332,8.19745394 C7.73180029,7.98592362 4.1039805,5.97600092 1.67668562,2.91919542 C1.25451478,3.66455136 1.01156033,4.5345179 1.01156033,5.45755932 C1.01156033,7.20749202 1.8783978,8.7551248 3.20039993,9.6597054 C2.39430107,9.63586016 1.63544335,9.4050998 0.969568206,9.02972963 C0.969568206,9.04895966 0.969568206,9.07280489 0.969568206,9.09203492 C0.969568206,11.5388639 2.66650003,13.5826314 4.92057739,14.0433829 C4.50815472,14.1587631 4.07248641,14.2210684 3.62257077,14.2210684 C3.30388052,14.2210684 2.99943761,14.1872236 2.69499469,14.1295335 C3.32337687,16.1340718 5.14178592,17.595554 7.29238268,17.6393985 C5.60519903,18.994731 3.48684622,19.8031614 1.1765294,19.8031614 C0.778354059,19.8031614 0.389177029,19.7793162 0,19.7308565 C2.18434044,21.1684935 4.77060551,22 7.55033431,22 C16.6048866,22 21.5584578,14.3033729 21.5584578,7.63055267 C21.5584578,7.40979193 21.5539586,7.1928772 21.5442105,6.97673166 C22.5047804,6.26983578 23.3393739,5.38063921 24,4.36606284 L24,4.36529364 Z" id="Path" fill="#1E262E" fill-rule="nonzero"></path>
    </g>
</svg>